<svg width="24" height="24" viewBox="0 0 24 24" fill="none" xmlns="http://www.w3.org/2000/svg">
  <!-- Podex logo - P{x} -->
  <!-- Large P -->
  <path d="M4 3H12C15.3137 3 18 5.68629 18 9C18 12.3137 15.3137 15 12 15H8V19H4V3Z" fill="currentColor" opacity="0.9"/>
  <path d="M8 6H11.5C13.1569 6 14.5 7.34315 14.5 9C14.5 10.6569 13.1569 12 11.5 12H8V6Z" fill="var(--vscode-editor-background, #1e1e1e)"/>
  <!-- {x} with curly braces -->
  <path d="M11.5 15 Q10.5 15 10.5 16 Q10.5 17 10 17 Q10.5 17 10.5 18 Q10.5 19 11.5 19" stroke="currentColor" stroke-width="1" stroke-linecap="round" fill="none"/>
  <path d="M13.5 15.5L17.5 19.5M17.5 15.5L13.5 19.5" stroke="currentColor" stroke-width="1.2" stroke-linecap="round"/>
  <path d="M19.5 15 Q20.5 15 20.5 16 Q20.5 17 21 17 Q20.5 17 20.5 18 Q20.5 19 19.5 19" stroke="currentColor" stroke-width="1" stroke-linecap="round" fill="none"/>
</svg>
