<svg width="32" height="32" viewBox="0 0 32 32" fill="none" xmlns="http://www.w3.org/2000/svg">
  <rect width="32" height="32" rx="6" fill="#07070a"/>
  <!-- Large P -->
  <path d="M7 5H16C19.866 5 23 8.13401 23 12C23 15.866 19.866 19 16 19H12V25H7V5Z" fill="white"/>
  <path d="M12 9H15.5C17.157 9 18.5 10.343 18.5 12C18.5 13.657 17.157 15 15.5 15H12V9Z" fill="#07070a"/>
  <!-- {x} with curly braces -->
  <path d="M15 19 Q13.5 19 13.5 20.5 Q13.5 22 12.5 22 Q13.5 22 13.5 23.5 Q13.5 25 15 25" stroke="white" stroke-width="1.2" stroke-linecap="round" fill="none"/>
  <path d="M17.5 19.5L21.5 23.5M21.5 19.5L17.5 23.5" stroke="white" stroke-width="1.5" stroke-linecap="round"/>
  <path d="M24 19 Q25.5 19 25.5 20.5 Q25.5 22 26.5 22 Q25.5 22 25.5 23.5 Q25.5 25 24 25" stroke="white" stroke-width="1.2" stroke-linecap="round" fill="none"/>
</svg>
